# xmcd
# 
# Track frame offsets:
#     150
#     21302
#     40595
#     58885
#     82325
#     101505
#     130832
#     152435
#     168092
#     182947
#     202730
#     224467
#     251570
#     270125
#     305587
# 
# Disc length: 4636
# 
# Revision: 34
# Processed by: cddbd v1.5.2PL0 Copyright (c) Steve Scherf et al.
# Submitted via: fre:ac v1.0.31
# 
DISCID=c7121a0f
DTITLE=Bruce Springsteen - The Essential CD2
DYEAR=2003
DGENRE=Rock
TTITLE0=Born In The U.S.A.
TTITLE1=Glory Days
TTITLE2=Dancing In The Dark
TTITLE3=Tunnel Of Love
TTITLE4=Brilliant Disguise
TTITLE5=Human Touch
TTITLE6=Living Proof
TTITLE7=Lucky Town
TTITLE8=Streets Of Philadelphia
TTITLE9=The Ghost Of Tom Joad
TTITLE10=The Rising
TTITLE11=Mary's Place
TTITLE12=Lonesome Day
TTITLE13=American Skin (41 Shots) (Live)
TTITLE14=Land Of Hope And Dreams (Live)
EXTD=
EXTT0=
EXTT1=
EXTT2=
EXTT3=
EXTT4=
EXTT5=
EXTT6=
EXTT7=
EXTT8=
EXTT9=
EXTT10=
EXTT11=
EXTT12=
EXTT13=
EXTT14=
PLAYORDER=
